MasterSet_Kanji_75-w1000.00.ufo
<glyph name="c1177" format="1">
	<advance width="750"/>
	<outline>
		<contour>
			<point x="209" y="152" type="line"/>
			<point x="209" y="60" type="line"/>
			<point x="209" y="-49"/>
			<point x="234" y="-84"/>
			<point x="340" y="-84" type="curve"/>
			<point x="361" y="-84"/>
			<point x="428" y="-84"/>
			<point x="450" y="-84" type="curve"/>
			<point x="526" y="-84"/>
			<point x="554" y="-55"/>
			<point x="565" y="58" type="curve"/>
			<point x="537" y="65"/>
			<point x="494" y="84"/>
			<point x="473" y="103" type="curve"/>
			<point x="470" y="41"/>
			<point x="465" y="31"/>
			<point x="440" y="31" type="curve"/>
			<point x="421" y="31"/>
			<point x="368" y="31"/>
			<point x="353" y="31" type="curve"/>
			<point x="321" y="31"/>
			<point x="315" y="34"/>
			<point x="315" y="62" type="curve"/>
			<point x="315" y="152" type="line"/>
		</contour>
		<contour>
			<point x="283" y="150" type="line"/>
			<point x="324" y="127"/>
			<point x="377" y="87"/>
			<point x="401" y="59" type="curve"/>
			<point x="467" y="148" type="line"/>
			<point x="439" y="176"/>
			<point x="385" y="212"/>
			<point x="344" y="231" type="curve"/>
		</contour>
		<contour>
			<point x="533" y="121" type="line"/>
			<point x="576" y="64"/>
			<point x="624" y="-17"/>
			<point x="644" y="-71" type="curve"/>
			<point x="734" y="-2" type="line"/>
			<point x="712" y="55"/>
			<point x="661" y="130"/>
			<point x="617" y="183" type="curve"/>
		</contour>
		<contour>
			<point x="109" y="169" type="line"/>
			<point x="92" y="102"/>
			<point x="59" y="39"/>
			<point x="14" y="0" type="curve"/>
			<point x="99" y="-77" type="line"/>
			<point x="151" y="-28"/>
			<point x="180" y="47"/>
			<point x="200" y="125" type="curve"/>
		</contour>
		<contour>
			<point x="86" y="809" type="line"/>
			<point x="86" y="698" type="line"/>
			<point x="663" y="698" type="line"/>
			<point x="663" y="809" type="line"/>
		</contour>
		<contour>
			<point x="48" y="651" type="line"/>
			<point x="48" y="540" type="line"/>
			<point x="704" y="540" type="line"/>
			<point x="704" y="651" type="line"/>
		</contour>
		<contour>
			<point x="320" y="855" type="line"/>
			<point x="320" y="729" type="line"/>
			<point x="429" y="729" type="line"/>
			<point x="429" y="855" type="line"/>
		</contour>
		<contour>
			<point x="188" y="701" type="line"/>
			<point x="194" y="676"/>
			<point x="202" y="642"/>
			<point x="204" y="621" type="curve"/>
			<point x="308" y="651" type="line"/>
			<point x="304" y="671"/>
			<point x="296" y="703"/>
			<point x="287" y="726" type="curve"/>
		</contour>
		<contour>
			<point x="461" y="726" type="line"/>
			<point x="458" y="705"/>
			<point x="448" y="676"/>
			<point x="441" y="652" type="curve"/>
			<point x="537" y="626" type="line"/>
			<point x="546" y="644"/>
			<point x="559" y="667"/>
			<point x="575" y="699" type="curve"/>
		</contour>
		<contour>
			<point x="227" y="309" type="line"/>
			<point x="528" y="309" type="line"/>
			<point x="528" y="278" type="line"/>
			<point x="227" y="278" type="line"/>
		</contour>
		<contour>
			<point x="227" y="420" type="line"/>
			<point x="528" y="420" type="line"/>
			<point x="528" y="390" type="line"/>
			<point x="227" y="390" type="line"/>
		</contour>
		<contour>
			<point x="124" y="506" type="line"/>
			<point x="124" y="192" type="line"/>
			<point x="636" y="192" type="line"/>
			<point x="636" y="506" type="line"/>
		</contour>
	</outline>
</glyph>
<glyph name="c13393" format="1">
	<advance width="750"/>
	<outline>
		<contour>
			<point x="419" y="789" type="line"/>
			<point x="419" y="686" type="line"/>
			<point x="632" y="686" type="line"/>
			<point x="632" y="789" type="line"/>
		</contour>
		<contour>
			<point x="347" y="304" type="line"/>
			<point x="347" y="203" type="line"/>
			<point x="699" y="203" type="line"/>
			<point x="699" y="304" type="line"/>
		</contour>
		<contour>
			<point x="378" y="455" type="line"/>
			<point x="378" y="357" type="line"/>
			<point x="635" y="357" type="line"/>
			<point x="635" y="455" type="line"/>
		</contour>
		<contour>
			<point x="281" y="36" type="line"/>
			<point x="281" y="-76" type="line"/>
			<point x="724" y="-76" type="line"/>
			<point x="724" y="36" type="line"/>
		</contour>
		<contour>
			<point x="340" y="169" type="line"/>
			<point x="340" y="70" type="line"/>
			<point x="681" y="70" type="line"/>
			<point x="681" y="169" type="line"/>
		</contour>
		<contour>
			<point x="602" y="789" type="line"/>
			<point x="602" y="770" type="line"/>
			<point x="551" y="645"/>
			<point x="410" y="551"/>
			<point x="262" y="513" type="curve"/>
			<point x="281" y="486"/>
			<point x="303" y="435"/>
			<point x="314" y="403" type="curve"/>
			<point x="477" y="457"/>
			<point x="629" y="565"/>
			<point x="701" y="748" type="curve"/>
			<point x="636" y="794" type="line"/>
			<point x="620" y="789" type="line"/>
		</contour>
		<contour>
			<point x="430" y="725" type="curve"/>
			<point x="347" y="686" type="line"/>
			<point x="419" y="547"/>
			<point x="536" y="457"/>
			<point x="686" y="418" type="curve"/>
			<point x="698" y="452"/>
			<point x="725" y="504"/>
			<point x="746" y="530" type="curve"/>
			<point x="605" y="557"/>
			<point x="488" y="625"/>
		</contour>
		<contour>
			<point x="431" y="858" type="line"/>
			<point x="402" y="786"/>
			<point x="349" y="711"/>
			<point x="267" y="656" type="curve"/>
			<point x="288" y="637"/>
			<point x="320" y="591"/>
			<point x="334" y="561" type="curve"/>
			<point x="428" y="636"/>
			<point x="488" y="726"/>
			<point x="533" y="833" type="curve"/>
		</contour>
		<contour>
			<point x="333" y="374" type="line"/>
			<point x="319" y="315"/>
			<point x="293" y="254"/>
			<point x="260" y="214" type="curve"/>
			<point x="281" y="199"/>
			<point x="317" y="168"/>
			<point x="334" y="149" type="curve"/>
			<point x="368" y="196"/>
			<point x="401" y="272"/>
			<point x="420" y="346" type="curve"/>
		</contour>
		<contour>
			<point x="455" y="376" type="line"/>
			<point x="455" y="7" type="line"/>
			<point x="557" y="7" type="line"/>
			<point x="557" y="376" type="line"/>
		</contour>
		<contour>
			<point x="50" y="812" type="line"/>
			<point x="50" y="-96" type="line"/>
			<point x="144" y="-96" type="line"/>
			<point x="144" y="683" type="line"/>
			<point x="227" y="683" type="line"/>
			<point x="227" y="812" type="line"/>
		</contour>
		<contour>
			<point x="194" y="812" type="line"/>
			<point x="194" y="769" type="line"/>
			<point x="185" y="707"/>
			<point x="164" y="554"/>
			<point x="146" y="464" type="curve"/>
			<point x="182" y="401"/>
			<point x="190" y="340"/>
			<point x="190" y="298" type="curve"/>
			<point x="190" y="269"/>
			<point x="186" y="252"/>
			<point x="179" y="244" type="curve"/>
			<point x="173" y="239"/>
			<point x="166" y="236"/>
			<point x="159" y="236" type="curve"/>
			<point x="151" y="236"/>
			<point x="143" y="236"/>
			<point x="132" y="238" type="curve"/>
			<point x="147" y="203"/>
			<point x="155" y="149"/>
			<point x="155" y="114" type="curve"/>
			<point x="173" y="113"/>
			<point x="191" y="114"/>
			<point x="203" y="116" type="curve"/>
			<point x="221" y="120"/>
			<point x="236" y="127"/>
			<point x="248" y="140" type="curve"/>
			<point x="274" y="164"/>
			<point x="285" y="207"/>
			<point x="285" y="278" type="curve"/>
			<point x="285" y="335"/>
			<point x="278" y="403"/>
			<point x="236" y="479" type="curve"/>
			<point x="255" y="558"/>
			<point x="279" y="673"/>
			<point x="298" y="763" type="curve"/>
			<point x="227" y="817" type="line"/>
			<point x="212" y="812" type="line"/>
		</contour>
	</outline>
</glyph>
<glyph name="c13887" format="1">
	<advance width="750"/>
	<outline>
		<contour>
			<point x="239" y="462" type="line"/>
			<point x="239" y="358" type="line"/>
			<point x="698" y="358" type="line"/>
			<point x="698" y="462" type="line"/>
		</contour>
		<contour>
			<point x="215" y="308" type="line"/>
			<point x="215" y="203" type="line"/>
			<point x="722" y="203" type="line"/>
			<point x="722" y="308" type="line"/>
		</contour>
		<contour>
			<point x="329" y="521" type="line"/>
			<point x="329" y="273" type="line"/>
			<point x="425" y="273" type="line"/>
			<point x="425" y="521" type="line"/>
		</contour>
		<contour>
			<point x="505" y="521" type="line"/>
			<point x="505" y="273" type="line"/>
			<point x="603" y="273" type="line"/>
			<point x="603" y="521" type="line"/>
		</contour>
		<contour>
			<point x="230" y="829" type="line"/>
			<point x="230" y="624" type="line"/>
			<point x="230" y="527"/>
			<point x="251" y="499"/>
			<point x="323" y="499" type="curve"/>
			<point x="338" y="499"/>
			<point x="375" y="499"/>
			<point x="391" y="499" type="curve"/>
			<point x="442" y="499"/>
			<point x="465" y="521"/>
			<point x="474" y="596" type="curve"/>
			<point x="450" y="602"/>
			<point x="416" y="618"/>
			<point x="399" y="634" type="curve"/>
			<point x="397" y="602"/>
			<point x="393" y="595"/>
			<point x="380" y="595" type="curve"/>
			<point x="372" y="595"/>
			<point x="344" y="595"/>
			<point x="338" y="595" type="curve"/>
			<point x="321" y="595"/>
			<point x="319" y="598"/>
			<point x="319" y="625" type="curve"/>
			<point x="319" y="829" type="line"/>
		</contour>
		<contour>
			<point x="477" y="829" type="line"/>
			<point x="477" y="624" type="line"/>
			<point x="477" y="527"/>
			<point x="497" y="499"/>
			<point x="569" y="499" type="curve"/>
			<point x="584" y="499"/>
			<point x="622" y="499"/>
			<point x="638" y="499" type="curve"/>
			<point x="689" y="499"/>
			<point x="712" y="521"/>
			<point x="721" y="596" type="curve"/>
			<point x="697" y="602"/>
			<point x="663" y="618"/>
			<point x="646" y="634" type="curve"/>
			<point x="644" y="602"/>
			<point x="640" y="595"/>
			<point x="627" y="595" type="curve"/>
			<point x="619" y="595"/>
			<point x="591" y="595"/>
			<point x="584" y="595" type="curve"/>
			<point x="568" y="595"/>
			<point x="566" y="598"/>
			<point x="566" y="625" type="curve"/>
			<point x="566" y="829" type="line"/>
		</contour>
		<contour>
			<point x="485" y="153" type="line"/>
			<point x="533" y="121"/>
			<point x="585" y="77"/>
			<point x="612" y="48" type="curve"/>
			<point x="725" y="100" type="line"/>
			<point x="688" y="132"/>
			<point x="620" y="179"/>
			<point x="566" y="212" type="curve"/>
		</contour>
		<contour>
			<point x="357" y="210" type="line"/>
			<point x="326" y="180"/>
			<point x="271" y="152"/>
			<point x="218" y="134" type="curve"/>
			<point x="240" y="114"/>
			<point x="278" y="72"/>
			<point x="296" y="47" type="curve"/>
			<point x="349" y="74"/>
			<point x="413" y="118"/>
			<point x="452" y="166" type="curve"/>
		</contour>
		<contour>
			<point x="195" y="406" type="line"/>
			<point x="24" y="406" type="line"/>
			<point x="24" y="275" type="line"/>
			<point x="94" y="275" type="line"/>
			<point x="94" y="77" type="line"/>
			<point x="195" y="77" type="line"/>
		</contour>
		<contour>
			<point x="195" y="142" type="curve"/>
			<point x="105" y="142" type="line"/>
			<point x="76" y="109"/>
			<point x="43" y="78"/>
			<point x="14" y="52" type="curve"/>
			<point x="62" y="-86" type="line"/>
			<point x="98" y="-43"/>
			<point x="125" y="-7"/>
			<point x="152" y="29" type="curve"/>
			<point x="200" y="-46"/>
			<point x="261" y="-72"/>
			<point x="351" y="-77" type="curve"/>
			<point x="448" y="-83"/>
			<point x="610" y="-81"/>
			<point x="709" y="-74" type="curve"/>
			<point x="713" y="-35"/>
			<point x="729" y="29"/>
			<point x="740" y="60" type="curve"/>
			<point x="630" y="47"/>
			<point x="446" y="44"/>
			<point x="352" y="50" type="curve"/>
			<point x="277" y="54"/>
			<point x="224" y="80"/>
		</contour>
		<contour>
			<point x="53" y="768" type="line"/>
			<point x="90" y="731"/>
			<point x="136" y="676"/>
			<point x="156" y="638" type="curve"/>
			<point x="233" y="729" type="line"/>
			<point x="210" y="767"/>
			<point x="161" y="817"/>
			<point x="125" y="850" type="curve"/>
		</contour>
		<contour>
			<point x="23" y="558" type="line"/>
			<point x="62" y="524"/>
			<point x="110" y="471"/>
			<point x="132" y="435" type="curve"/>
			<point x="206" y="530" type="line"/>
			<point x="182" y="566"/>
			<point x="131" y="613"/>
			<point x="92" y="644" type="curve"/>
		</contour>
		<contour>
			<point x="272" y="829" type="line"/>
			<point x="272" y="746" type="line"/>
			<point x="365" y="746" type="line"/>
			<point x="365" y="714" type="line"/>
			<point x="272" y="714" type="line"/>
			<point x="272" y="631" type="line"/>
			<point x="455" y="631" type="line"/>
			<point x="455" y="829" type="line"/>
		</contour>
		<contour>
			<point x="519" y="829" type="line"/>
			<point x="519" y="746" type="line"/>
			<point x="614" y="746" type="line"/>
			<point x="614" y="714" type="line"/>
			<point x="519" y="714" type="line"/>
			<point x="519" y="631" type="line"/>
			<point x="707" y="631" type="line"/>
			<point x="707" y="829" type="line"/>
		</contour>
	</outline>
</glyph>
<glyph name="c14066" format="1">
	<advance width="750"/>
	<outline>
		<contour>
			<point x="498" y="788" type="line"/>
			<point x="498" y="-95" type="line"/>
			<point x="590" y="-95" type="line"/>
			<point x="590" y="670" type="line"/>
			<point x="665" y="670" type="line"/>
			<point x="665" y="788" type="line"/>
		</contour>
		<contour>
			<point x="623" y="788" type="line"/>
			<point x="623" y="217" type="line"/>
			<point x="623" y="208"/>
			<point x="622" y="205"/>
			<point x="617" y="205" type="curve"/>
			<point x="611" y="205"/>
			<point x="601" y="205"/>
			<point x="590" y="206" type="curve"/>
			<point x="602" y="172"/>
			<point x="614" y="115"/>
			<point x="617" y="79" type="curve"/>
			<point x="647" y="79"/>
			<point x="671" y="83"/>
			<point x="692" y="104" type="curve"/>
			<point x="713" y="127"/>
			<point x="718" y="164"/>
			<point x="718" y="214" type="curve"/>
			<point x="718" y="788" type="line"/>
		</contour>
		<contour>
			<point x="30" y="691" type="line"/>
			<point x="30" y="561" type="line"/>
			<point x="267" y="561" type="line"/>
			<point x="267" y="691" type="line"/>
		</contour>
		<contour>
			<point x="334" y="703" type="line"/>
			<point x="334" y="579" type="line"/>
			<point x="449" y="579" type="line"/>
			<point x="449" y="703" type="line"/>
		</contour>
		<contour>
			<point x="107" y="855" type="line"/>
			<point x="107" y="-95" type="line"/>
			<point x="206" y="-95" type="line"/>
			<point x="206" y="855" type="line"/>
		</contour>
		<contour>
			<point x="106" y="584" type="line"/>
			<point x="91" y="473"/>
			<point x="53" y="327"/>
			<point x="10" y="239" type="curve"/>
			<point x="25" y="204"/>
			<point x="48" y="149"/>
			<point x="57" y="109" type="curve"/>
			<point x="110" y="214"/>
			<point x="149" y="405"/>
			<point x="169" y="556" type="curve"/>
		</contour>
		<contour>
			<point x="205" y="571" type="curve"/>
			<point x="164" y="507" type="line"/>
			<point x="181" y="461"/>
			<point x="214" y="361"/>
			<point x="228" y="303" type="curve"/>
			<point x="278" y="419" type="line"/>
			<point x="269" y="441"/>
			<point x="218" y="548"/>
		</contour>
		<contour>
			<point x="306" y="845" type="line"/>
			<point x="299" y="694"/>
			<point x="278" y="487"/>
			<point x="227" y="369" type="curve"/>
			<point x="247" y="345"/>
			<point x="277" y="296"/>
			<point x="292" y="266" type="curve"/>
			<point x="361" y="408"/>
			<point x="393" y="638"/>
			<point x="410" y="827" type="curve"/>
		</contour>
		<contour>
			<point x="417" y="703" type="line"/>
			<point x="417" y="672" type="line"/>
			<point x="403" y="367"/>
			<point x="352" y="131"/>
			<point x="253" y="9" type="curve"/>
			<point x="274" y="-12"/>
			<point x="310" y="-67"/>
			<point x="325" y="-100" type="curve"/>
			<point x="432" y="39"/>
			<point x="496" y="321"/>
			<point x="515" y="687" type="curve"/>
			<point x="453" y="707" type="line"/>
			<point x="435" y="703" type="line"/>
		</contour>
		<contour>
			<point x="307" y="367" type="line"/>
			<point x="332" y="325"/>
			<point x="362" y="268"/>
			<point x="374" y="229" type="curve"/>
			<point x="419" y="367" type="line"/>
			<point x="407" y="400"/>
			<point x="375" y="451"/>
			<point x="350" y="489" type="curve"/>
		</contour>
	</outline>
</glyph>
<glyph name="c14872" format="1">
	<advance width="750"/>
	<outline>
		<contour>
			<point x="58" y="429" type="line"/>
			<point x="58" y="330" type="line"/>
			<point x="376" y="330" type="line"/>
			<point x="376" y="429" type="line"/>
		</contour>
		<contour>
			<point x="402" y="646" type="line"/>
			<point x="402" y="556" type="line"/>
			<point x="700" y="556" type="line"/>
			<point x="700" y="646" type="line"/>
		</contour>
		<contour>
			<point x="440" y="855" type="line"/>
			<point x="421" y="789"/>
			<point x="386" y="722"/>
			<point x="346" y="679" type="curve"/>
			<point x="368" y="664"/>
			<point x="404" y="632"/>
			<point x="422" y="613" type="curve"/>
			<point x="461" y="663"/>
			<point x="503" y="745"/>
			<point x="527" y="825" type="curve"/>
		</contour>
		<contour>
			<point x="58" y="816" type="line"/>
			<point x="58" y="372" type="line"/>
			<point x="153" y="372" type="line"/>
			<point x="153" y="717" type="line"/>
			<point x="375" y="717" type="line"/>
			<point x="375" y="816" type="line"/>
		</contour>
		<contour>
			<point x="98" y="679" type="line"/>
			<point x="98" y="594" type="line"/>
			<point x="279" y="594" type="line"/>
			<point x="279" y="552" type="line"/>
			<point x="98" y="552" type="line"/>
			<point x="98" y="467" type="line"/>
			<point x="368" y="467" type="line"/>
			<point x="368" y="679" type="line"/>
		</contour>
		<contour>
			<point x="202" y="775" type="line"/>
			<point x="202" y="631" type="line"/>
			<point x="288" y="631" type="line"/>
			<point x="288" y="775" type="line"/>
		</contour>
		<contour>
			<point x="509" y="695" type="line"/>
			<point x="509" y="501" type="line"/>
			<point x="595" y="501" type="line"/>
			<point x="595" y="695" type="line"/>
		</contour>
		<contour>
			<point x="202" y="518" type="line"/>
			<point x="202" y="369" type="line"/>
			<point x="288" y="369" type="line"/>
			<point x="288" y="518" type="line"/>
		</contour>
		<contour>
			<point x="444" y="787" type="line"/>
			<point x="406" y="679" type="line"/>
			<point x="711" y="679" type="line"/>
			<point x="711" y="787" type="line"/>
		</contour>
		<contour>
			<point x="488" y="444" type="line"/>
			<point x="613" y="444" type="line"/>
			<point x="613" y="410" type="line"/>
			<point x="488" y="410" type="line"/>
		</contour>
		<contour>
			<point x="412" y="526" type="line"/>
			<point x="412" y="328" type="line"/>
			<point x="694" y="328" type="line"/>
			<point x="694" y="526" type="line"/>
		</contour>
		<contour>
			<point x="30" y="65" type="line"/>
			<point x="30" y="-59" type="line"/>
			<point x="719" y="-59" type="line"/>
			<point x="719" y="65" type="line"/>
		</contour>
		<contour>
			<point x="102" y="290" type="line"/>
			<point x="102" y="-1" type="line"/>
			<point x="203" y="-1" type="line"/>
			<point x="203" y="179" type="line"/>
			<point x="248" y="179" type="line"/>
			<point x="248" y="-1" type="line"/>
			<point x="347" y="-1" type="line"/>
			<point x="347" y="179" type="line"/>
			<point x="392" y="179" type="line"/>
			<point x="392" y="-1" type="line"/>
			<point x="491" y="-1" type="line"/>
			<point x="491" y="179" type="line"/>
			<point x="536" y="179" type="line"/>
			<point x="536" y="-1" type="line"/>
			<point x="643" y="-1" type="line"/>
			<point x="643" y="290" type="line"/>
		</contour>
	</outline>
</glyph>
<glyph name="c15324" format="1">
	<advance width="750"/>
	<outline>
		<contour>
			<point x="178" y="273" type="line"/>
			<point x="178" y="191" type="line"/>
			<point x="570" y="191" type="line"/>
			<point x="570" y="273" type="line"/>
		</contour>
		<contour>
			<point x="48" y="169" type="line"/>
			<point x="48" y="81" type="line"/>
			<point x="704" y="81" type="line"/>
			<point x="704" y="169" type="line"/>
		</contour>
		<contour>
			<point x="321" y="417" type="line"/>
			<point x="321" y="313" type="line"/>
			<point x="429" y="313" type="line"/>
			<point x="429" y="417" type="line"/>
		</contour>
		<contour>
			<point x="455" y="42" type="line"/>
			<point x="505" y="7"/>
			<point x="569" y="-48"/>
			<point x="599" y="-85" type="curve"/>
			<point x="695" y="-18" type="line"/>
			<point x="659" y="21"/>
			<point x="593" y="72"/>
			<point x="545" y="103" type="curve"/>
		</contour>
		<contour>
			<point x="54" y="379" type="line"/>
			<point x="54" y="220" type="line"/>
			<point x="159" y="220" type="line"/>
			<point x="159" y="295" type="line"/>
			<point x="588" y="295" type="line"/>
			<point x="588" y="220" type="line"/>
			<point x="698" y="220" type="line"/>
			<point x="698" y="379" type="line"/>
		</contour>
		<contour>
			<point x="317" y="115" type="line"/>
			<point x="317" y="23" type="line"/>
			<point x="317" y="12"/>
			<point x="313" y="9"/>
			<point x="302" y="9" type="curve"/>
			<point x="293" y="8"/>
			<point x="253" y="8"/>
			<point x="227" y="10" type="curve"/>
			<point x="240" y="-17"/>
			<point x="259" y="-61"/>
			<point x="268" y="-95" type="curve"/>
			<point x="313" y="-95"/>
			<point x="350" y="-94"/>
			<point x="383" y="-78" type="curve"/>
			<point x="415" y="-62"/>
			<point x="425" y="-39"/>
			<point x="425" y="18" type="curve"/>
			<point x="425" y="115" type="line"/>
		</contour>
		<contour>
			<point x="183" y="105" type="line"/>
			<point x="152" y="64"/>
			<point x="93" y="27"/>
			<point x="35" y="4" type="curve"/>
			<point x="56" y="-17"/>
			<point x="93" y="-64"/>
			<point x="110" y="-90" type="curve"/>
			<point x="170" y="-57"/>
			<point x="239" y="0"/>
			<point x="279" y="62" type="curve"/>
		</contour>
		<contour>
			<point x="154" y="737" type="line"/>
			<point x="154" y="677" type="line"/>
			<point x="367" y="677" type="line"/>
			<point x="367" y="737" type="line"/>
		</contour>
		<contour>
			<point x="154" y="658" type="line"/>
			<point x="154" y="598" type="line"/>
			<point x="367" y="598" type="line"/>
			<point x="367" y="658" type="line"/>
		</contour>
		<contour>
			<point x="35" y="579" type="line"/>
			<point x="35" y="502" type="line"/>
			<point x="420" y="502" type="line"/>
			<point x="420" y="579" type="line"/>
		</contour>
		<contour>
			<point x="90" y="833" type="line"/>
			<point x="90" y="537" type="line"/>
			<point x="188" y="537" type="line"/>
			<point x="188" y="756" type="line"/>
			<point x="392" y="756" type="line"/>
			<point x="392" y="833" type="line"/>
		</contour>
		<contour>
			<point x="124" y="552" type="line"/>
			<point x="118" y="524"/>
			<point x="105" y="483"/>
			<point x="95" y="454" type="curve"/>
			<point x="163" y="428" type="line"/>
			<point x="176" y="453"/>
			<point x="194" y="487"/>
			<point x="212" y="525" type="curve"/>
		</contour>
		<contour>
			<point x="55" y="471" type="curve"/>
			<point x="61" y="388" type="line"/>
			<point x="138" y="394"/>
			<point x="239" y="403"/>
			<point x="339" y="414" type="curve"/>
			<point x="340" y="486" type="line"/>
			<point x="234" y="479"/>
			<point x="128" y="474"/>
		</contour>
		<contour>
			<point x="267" y="496" type="line"/>
			<point x="290" y="467"/>
			<point x="318" y="424"/>
			<point x="330" y="397" type="curve"/>
			<point x="399" y="443" type="line"/>
			<point x="386" y="471"/>
			<point x="356" y="511"/>
			<point x="332" y="538" type="curve"/>
		</contour>
		<contour>
			<point x="608" y="855" type="line"/>
			<point x="561" y="816"/>
			<point x="467" y="776"/>
			<point x="401" y="756" type="curve"/>
			<point x="423" y="733"/>
			<point x="447" y="697"/>
			<point x="461" y="672" type="curve"/>
			<point x="533" y="698"/>
			<point x="625" y="743"/>
			<point x="689" y="799" type="curve"/>
		</contour>
		<contour>
			<point x="626" y="719" type="line"/>
			<point x="581" y="676"/>
			<point x="489" y="641"/>
			<point x="413" y="625" type="curve"/>
			<point x="433" y="602"/>
			<point x="455" y="564"/>
			<point x="467" y="537" type="curve"/>
			<point x="555" y="563"/>
			<point x="647" y="606"/>
			<point x="707" y="671" type="curve"/>
		</contour>
		<contour>
			<point x="641" y="592" type="line"/>
			<point x="596" y="537"/>
			<point x="504" y="502"/>
			<point x="412" y="487" type="curve"/>
			<point x="431" y="461"/>
			<point x="454" y="419"/>
			<point x="465" y="387" type="curve"/>
			<point x="575" y="417"/>
			<point x="671" y="464"/>
			<point x="730" y="549" type="curve"/>
		</contour>
	</outline>
</glyph>
<glyph name="c16877" format="1">
	<advance width="750"/>
	<outline>
		<contour>
			<point x="219" y="519" type="line"/>
			<point x="528" y="519" type="line"/>
			<point x="528" y="496" type="line"/>
			<point x="219" y="496" type="line"/>
		</contour>
		<contour>
			<point x="219" y="614" type="line"/>
			<point x="528" y="614" type="line"/>
			<point x="528" y="591" type="line"/>
			<point x="219" y="591" type="line"/>
		</contour>
		<contour>
			<point x="120" y="690" type="line"/>
			<point x="120" y="420" type="line"/>
			<point x="632" y="420" type="line"/>
			<point x="632" y="690" type="line"/>
		</contour>
		<contour>
			<point x="35" y="398" type="line"/>
			<point x="35" y="302" type="line"/>
			<point x="713" y="302" type="line"/>
			<point x="713" y="398" type="line"/>
		</contour>
		<contour>
			<point x="246" y="447" type="line"/>
			<point x="215" y="357"/>
			<point x="147" y="280"/>
			<point x="18" y="233" type="curve"/>
			<point x="36" y="212"/>
			<point x="62" y="163"/>
			<point x="72" y="133" type="curve"/>
			<point x="217" y="199"/>
			<point x="296" y="293"/>
			<point x="344" y="426" type="curve"/>
		</contour>
		<contour>
			<point x="545" y="356" type="curve"/>
			<point x="467" y="323" type="line"/>
			<point x="512" y="231"/>
			<point x="584" y="159"/>
			<point x="674" y="126" type="curve"/>
			<point x="687" y="158"/>
			<point x="714" y="207"/>
			<point x="735" y="232" type="curve"/>
			<point x="653" y="252"/>
			<point x="581" y="297"/>
		</contour>
		<contour>
			<point x="38" y="815" type="line"/>
			<point x="38" y="717" type="line"/>
			<point x="714" y="717" type="line"/>
			<point x="714" y="815" type="line"/>
		</contour>
		<contour>
			<point x="200" y="855" type="line"/>
			<point x="200" y="675" type="line"/>
			<point x="306" y="675" type="line"/>
			<point x="306" y="855" type="line"/>
		</contour>
		<contour>
			<point x="442" y="855" type="line"/>
			<point x="442" y="675" type="line"/>
			<point x="548" y="675" type="line"/>
			<point x="548" y="855" type="line"/>
		</contour>
		<contour>
			<point x="182" y="198" type="line"/>
			<point x="182" y="124" type="line"/>
			<point x="575" y="124" type="line"/>
			<point x="575" y="198" type="line"/>
		</contour>
		<contour>
			<point x="92" y="103" type="line"/>
			<point x="92" y="23" type="line"/>
			<point x="659" y="23" type="line"/>
			<point x="659" y="103" type="line"/>
		</contour>
		<contour>
			<point x="329" y="247" type="line"/>
			<point x="329" y="13" type="line"/>
			<point x="329" y="1"/>
			<point x="326" y="-2"/>
			<point x="316" y="-2" type="curve"/>
			<point x="308" y="-3"/>
			<point x="272" y="-3"/>
			<point x="247" y="-1" type="curve"/>
			<point x="257" y="-27"/>
			<point x="269" y="-66"/>
			<point x="274" y="-96" type="curve"/>
			<point x="323" y="-96"/>
			<point x="362" y="-96"/>
			<point x="391" y="-82" type="curve"/>
			<point x="420" y="-68"/>
			<point x="429" y="-46"/>
			<point x="429" y="8" type="curve"/>
			<point x="429" y="247" type="line"/>
		</contour>
		<contour>
			<point x="444" y="312" type="line"/>
			<point x="395" y="295"/>
			<point x="309" y="284"/>
			<point x="234" y="278" type="curve"/>
			<point x="242" y="260"/>
			<point x="251" y="229"/>
			<point x="253" y="210" type="curve"/>
			<point x="335" y="213"/>
			<point x="431" y="225"/>
			<point x="502" y="249" type="curve"/>
		</contour>
	</outline>
</glyph>
<glyph name="c17700" format="1">
	<advance width="750"/>
	<outline>
		<contour>
			<point x="307" y="775" type="line"/>
			<point x="307" y="653" type="line"/>
			<point x="719" y="653" type="line"/>
			<point x="719" y="775" type="line"/>
		</contour>
		<contour>
			<point x="414" y="246" type="line"/>
			<point x="414" y="135" type="line"/>
			<point x="523" y="135" type="line"/>
			<point x="523" y="246" type="line"/>
		</contour>
		<contour>
			<point x="362" y="328" type="line"/>
			<point x="362" y="4" type="line"/>
			<point x="452" y="4" type="line"/>
			<point x="452" y="328" type="line"/>
		</contour>
		<contour>
			<point x="440" y="855" type="line"/>
			<point x="440" y="702" type="line"/>
			<point x="551" y="702" type="line"/>
			<point x="551" y="855" type="line"/>
		</contour>
		<contour>
			<point x="391" y="653" type="line"/>
			<point x="391" y="383" type="line"/>
			<point x="475" y="383" type="line"/>
			<point x="475" y="653" type="line"/>
		</contour>
		<contour>
			<point x="506" y="653" type="line"/>
			<point x="506" y="383" type="line"/>
			<point x="590" y="383" type="line"/>
			<point x="590" y="653" type="line"/>
		</contour>
		<contour>
			<point x="679" y="284" type="line"/>
			<point x="647" y="252"/>
			<point x="595" y="208"/>
			<point x="560" y="187" type="curve"/>
			<point x="602" y="104" type="line"/>
			<point x="639" y="124"/>
			<point x="691" y="159"/>
			<point x="731" y="193" type="curve"/>
		</contour>
		<contour>
			<point x="313" y="593" type="line"/>
			<point x="313" y="486" type="line"/>
			<point x="624" y="486" type="line"/>
			<point x="624" y="419" type="line"/>
			<point x="313" y="419" type="line"/>
			<point x="313" y="312" type="line"/>
			<point x="716" y="312" type="line"/>
			<point x="716" y="593" type="line"/>
		</contour>
		<contour>
			<point x="536" y="328" type="line"/>
			<point x="536" y="58" type="line"/>
			<point x="536" y="-50"/>
			<point x="550" y="-86"/>
			<point x="617" y="-86" type="curve"/>
			<point x="630" y="-86"/>
			<point x="645" y="-86"/>
			<point x="658" y="-86" type="curve"/>
			<point x="707" y="-86"/>
			<point x="731" y="-54"/>
			<point x="740" y="58" type="curve"/>
			<point x="715" y="66"/>
			<point x="677" y="86"/>
			<point x="660" y="105" type="curve"/>
			<point x="659" y="37"/>
			<point x="656" y="27"/>
			<point x="647" y="27" type="curve"/>
			<point x="644" y="27"/>
			<point x="638" y="27"/>
			<point x="635" y="27" type="curve"/>
			<point x="627" y="27"/>
			<point x="626" y="30"/>
			<point x="626" y="59" type="curve"/>
			<point x="626" y="328" type="line"/>
		</contour>
		<contour>
			<point x="323" y="22" type="curve"/>
			<point x="339" y="-94" type="line"/>
			<point x="395" y="-81"/>
			<point x="462" y="-65"/>
			<point x="526" y="-49" type="curve"/>
			<point x="519" y="62" type="line"/>
			<point x="446" y="46"/>
			<point x="374" y="31"/>
		</contour>
		<contour>
			<point x="260" y="775" type="line"/>
			<point x="260" y="427" type="line"/>
			<point x="260" y="286"/>
			<point x="254" y="99"/>
			<point x="189" y="-26" type="curve"/>
			<point x="212" y="-40"/>
			<point x="254" y="-75"/>
			<point x="272" y="-96" type="curve"/>
			<point x="344" y="42"/>
			<point x="355" y="268"/>
			<point x="355" y="427" type="curve"/>
			<point x="355" y="775" type="line"/>
		</contour>
		<contour>
			<point x="13" y="366" type="curve"/>
			<point x="35" y="227" type="line"/>
			<point x="101" y="250"/>
			<point x="180" y="279"/>
			<point x="254" y="307" type="curve"/>
			<point x="240" y="437" type="line"/>
			<point x="158" y="409"/>
			<point x="72" y="381"/>
		</contour>
		<contour>
			<point x="26" y="672" type="line"/>
			<point x="26" y="539" type="line"/>
			<point x="250" y="539" type="line"/>
			<point x="250" y="672" type="line"/>
		</contour>
		<contour>
			<point x="96" y="854" type="line"/>
			<point x="96" y="54" type="line"/>
			<point x="96" y="41"/>
			<point x="93" y="38"/>
			<point x="84" y="38" type="curve"/>
			<point x="75" y="37"/>
			<point x="50" y="37"/>
			<point x="26" y="39" type="curve"/>
			<point x="39" y="0"/>
			<point x="51" y="-60"/>
			<point x="53" y="-96" type="curve"/>
			<point x="103" y="-96"/>
			<point x="137" y="-91"/>
			<point x="163" y="-68" type="curve"/>
			<point x="188" y="-46"/>
			<point x="196" y="-9"/>
			<point x="196" y="54" type="curve"/>
			<point x="196" y="854" type="line"/>
		</contour>
	</outline>
</glyph>
<glyph name="c18480" format="1">
	<advance width="750"/>
	<outline>
		<contour>
			<point x="42" y="803" type="line"/>
			<point x="42" y="674" type="line"/>
			<point x="711" y="674" type="line"/>
			<point x="711" y="803" type="line"/>
		</contour>
		<contour>
			<point x="189" y="855" type="line"/>
			<point x="189" y="639" type="line"/>
			<point x="297" y="639" type="line"/>
			<point x="297" y="855" type="line"/>
		</contour>
		<contour>
			<point x="451" y="855" type="line"/>
			<point x="451" y="639" type="line"/>
			<point x="560" y="639" type="line"/>
			<point x="560" y="855" type="line"/>
		</contour>
		<contour>
			<point x="107" y="619" type="line"/>
			<point x="107" y="403" type="line"/>
			<point x="107" y="277"/>
			<point x="101" y="103"/>
			<point x="18" y="-14" type="curve"/>
			<point x="44" y="-30"/>
			<point x="91" y="-74"/>
			<point x="110" y="-99" type="curve"/>
			<point x="200" y="32"/>
			<point x="215" y="250"/>
			<point x="215" y="401" type="curve"/>
			<point x="215" y="619" type="line"/>
		</contour>
		<contour>
			<point x="170" y="619" type="line"/>
			<point x="170" y="502" type="line"/>
			<point x="564" y="502" type="line"/>
			<point x="564" y="460" type="line"/>
			<point x="170" y="460" type="line"/>
			<point x="170" y="343" type="line"/>
			<point x="672" y="343" type="line"/>
			<point x="672" y="619" type="line"/>
		</contour>
		<contour>
			<point x="247" y="319" type="line"/>
			<point x="247" y="88" type="line"/>
			<point x="247" y="-44"/>
			<point x="281" y="-84"/>
			<point x="409" y="-84" type="curve"/>
			<point x="435" y="-84"/>
			<point x="543" y="-84"/>
			<point x="572" y="-84" type="curve"/>
			<point x="677" y="-84"/>
			<point x="707" y="-45"/>
			<point x="722" y="110" type="curve"/>
			<point x="692" y="118"/>
			<point x="647" y="139"/>
			<point x="623" y="161" type="curve"/>
			<point x="617" y="62"/>
			<point x="610" y="48"/>
			<point x="565" y="48" type="curve"/>
			<point x="534" y="48"/>
			<point x="441" y="48"/>
			<point x="416" y="48" type="curve"/>
			<point x="361" y="48"/>
			<point x="353" y="52"/>
			<point x="353" y="91" type="curve"/>
			<point x="353" y="319" type="line"/>
		</contour>
		<contour>
			<point x="584" y="331" type="line"/>
			<point x="515" y="286"/>
			<point x="401" y="249"/>
			<point x="293" y="228" type="curve"/>
			<point x="305" y="199"/>
			<point x="320" y="148"/>
			<point x="325" y="116" type="curve"/>
			<point x="440" y="135"/>
			<point x="571" y="170"/>
			<point x="669" y="227" type="curve"/>
		</contour>
	</outline>
</glyph>
<glyph name="c1984" format="1">
	<advance width="750"/>
	<outline>
		<contour>
			<point x="191" y="444" type="line"/>
			<point x="191" y="325" type="line"/>
			<point x="725" y="325" type="line"/>
			<point x="725" y="444" type="line"/>
		</contour>
		<contour>
			<point x="227" y="597" type="line"/>
			<point x="227" y="484" type="line"/>
			<point x="572" y="484" type="line"/>
			<point x="572" y="282" type="line"/>
			<point x="218" y="282" type="line"/>
			<point x="218" y="169" type="line"/>
			<point x="677" y="169" type="line"/>
			<point x="677" y="597" type="line"/>
		</contour>
		<contour>
			<point x="374" y="651" type="line"/>
			<point x="374" y="321" type="line"/>
			<point x="374" y="195"/>
			<point x="338" y="78"/>
			<point x="153" y="27" type="curve"/>
			<point x="176" y="-2"/>
			<point x="206" y="-56"/>
			<point x="218" y="-86" type="curve"/>
			<point x="430" y="-14"/>
			<point x="480" y="141"/>
			<point x="480" y="320" type="curve"/>
			<point x="480" y="651" type="line"/>
		</contour>
		<contour>
			<point x="487" y="224" type="curve"/>
			<point x="392" y="201" type="line"/>
			<point x="443" y="35"/>
			<point x="520" y="-59"/>
			<point x="670" y="-96" type="curve"/>
			<point x="684" y="-56"/>
			<point x="713" y="3"/>
			<point x="737" y="34" type="curve"/>
			<point x="604" y="53"/>
			<point x="525" y="115"/>
		</contour>
		<contour>
			<point x="343" y="855" type="line"/>
			<point x="343" y="666" type="line"/>
			<point x="457" y="666" type="line"/>
			<point x="457" y="855" type="line"/>
		</contour>
		<contour>
			<point x="132" y="783" type="line"/>
			<point x="132" y="649" type="line"/>
			<point x="720" y="649" type="line"/>
			<point x="720" y="783" type="line"/>
		</contour>
		<contour>
			<point x="79" y="783" type="line"/>
			<point x="79" y="458" type="line"/>
			<point x="79" y="313"/>
			<point x="74" y="117"/>
			<point x="8" y="-14" type="curve"/>
			<point x="33" y="-30"/>
			<point x="80" y="-74"/>
			<point x="98" y="-99" type="curve"/>
			<point x="173" y="47"/>
			<point x="185" y="293"/>
			<point x="185" y="457" type="curve"/>
			<point x="185" y="783" type="line"/>
		</contour>
	</outline>
</glyph>
<glyph name="c22029" format="1">
	<advance width="750"/>
	<outline>
		<contour>
			<point x="190" y="778" type="line"/>
			<point x="190" y="670" type="line"/>
			<point x="727" y="670" type="line"/>
			<point x="727" y="778" type="line"/>
		</contour>
		<contour>
			<point x="353" y="855" type="line"/>
			<point x="353" y="724" type="line"/>
			<point x="461" y="724" type="line"/>
			<point x="461" y="855" type="line"/>
		</contour>
		<contour>
			<point x="114" y="778" type="line"/>
			<point x="114" y="456" type="line"/>
			<point x="114" y="315"/>
			<point x="108" y="127"/>
			<point x="32" y="2" type="curve"/>
			<point x="53" y="-15"/>
			<point x="92" y="-65"/>
			<point x="107" y="-92" type="curve"/>
			<point x="197" y="51"/>
			<point x="212" y="293"/>
			<point x="212" y="456" type="curve"/>
			<point x="212" y="778" type="line"/>
		</contour>
		<contour>
			<point x="15" y="648" type="line"/>
			<point x="33" y="582"/>
			<point x="49" y="496"/>
			<point x="52" y="443" type="curve"/>
			<point x="134" y="493" type="line"/>
			<point x="130" y="545"/>
			<point x="112" y="627"/>
			<point x="92" y="691" type="curve"/>
		</contour>
		<contour>
			<point x="7" y="314" type="curve"/>
			<point x="36" y="182" type="line"/>
			<point x="77" y="214"/>
			<point x="120" y="249"/>
			<point x="160" y="284" type="curve"/>
			<point x="135" y="394" type="line"/>
			<point x="86" y="362"/>
			<point x="40" y="332"/>
		</contour>
		<contour>
			<point x="213" y="88" type="line"/>
			<point x="213" y="-8" type="line"/>
			<point x="720" y="-8" type="line"/>
			<point x="720" y="88" type="line"/>
		</contour>
		<contour>
			<point x="275" y="518" type="line"/>
			<point x="275" y="431" type="line"/>
			<point x="663" y="431" type="line"/>
			<point x="663" y="518" type="line"/>
		</contour>
		<contour>
			<point x="355" y="222" type="line"/>
			<point x="581" y="222" type="line"/>
			<point x="581" y="197" type="line"/>
			<point x="355" y="197" type="line"/>
		</contour>
		<contour>
			<point x="355" y="325" type="line"/>
			<point x="581" y="325" type="line"/>
			<point x="581" y="300" type="line"/>
			<point x="355" y="300" type="line"/>
		</contour>
		<contour>
			<point x="260" y="407" type="line"/>
			<point x="260" y="115" type="line"/>
			<point x="680" y="115" type="line"/>
			<point x="680" y="407" type="line"/>
		</contour>
		<contour>
			<point x="417" y="572" type="line"/>
			<point x="417" y="-94" type="line"/>
			<point x="517" y="-94" type="line"/>
			<point x="517" y="572" type="line"/>
		</contour>
		<contour>
			<point x="232" y="637" type="line"/>
			<point x="232" y="490" type="line"/>
			<point x="320" y="490" type="line"/>
			<point x="320" y="545" type="line"/>
			<point x="618" y="545" type="line"/>
			<point x="618" y="490" type="line"/>
			<point x="711" y="490" type="line"/>
			<point x="711" y="637" type="line"/>
		</contour>
	</outline>
</glyph>
<glyph name="c22369" format="1">
	<advance width="750"/>
	<outline>
		<contour>
			<point x="320" y="608" type="line"/>
			<point x="320" y="-94" type="line"/>
			<point x="425" y="-94" type="line"/>
			<point x="425" y="608" type="line"/>
		</contour>
		<contour>
			<point x="65" y="116" type="line"/>
			<point x="65" y="18" type="line"/>
			<point x="683" y="18" type="line"/>
			<point x="683" y="116" type="line"/>
		</contour>
		<contour>
			<point x="50" y="660" type="line"/>
			<point x="50" y="560" type="line"/>
			<point x="701" y="560" type="line"/>
			<point x="701" y="660" type="line"/>
		</contour>
		<contour>
			<point x="38" y="799" type="line"/>
			<point x="38" y="696" type="line"/>
			<point x="714" y="696" type="line"/>
			<point x="714" y="799" type="line"/>
		</contour>
		<contour>
			<point x="34" y="246" type="line"/>
			<point x="34" y="145" type="line"/>
			<point x="716" y="145" type="line"/>
			<point x="716" y="246" type="line"/>
		</contour>
		<contour>
			<point x="202" y="855" type="line"/>
			<point x="202" y="648" type="line"/>
			<point x="308" y="648" type="line"/>
			<point x="308" y="855" type="line"/>
		</contour>
		<contour>
			<point x="439" y="855" type="line"/>
			<point x="439" y="648" type="line"/>
			<point x="545" y="648" type="line"/>
			<point x="545" y="855" type="line"/>
		</contour>
		<contour>
			<point x="181" y="594" type="line"/>
			<point x="161" y="533"/>
			<point x="115" y="485"/>
			<point x="59" y="455" type="curve"/>
			<point x="76" y="438"/>
			<point x="105" y="401"/>
			<point x="118" y="382" type="curve"/>
			<point x="178" y="423"/>
			<point x="232" y="489"/>
			<point x="259" y="573" type="curve"/>
		</contour>
		<contour>
			<point x="177" y="487" type="line"/>
			<point x="211" y="463"/>
			<point x="254" y="425"/>
			<point x="275" y="399" type="curve"/>
			<point x="319" y="475" type="line"/>
			<point x="297" y="500"/>
			<point x="253" y="534"/>
			<point x="220" y="555" type="curve"/>
		</contour>
		<contour>
			<point x="179" y="435" type="line"/>
			<point x="158" y="370"/>
			<point x="111" y="319"/>
			<point x="53" y="287" type="curve"/>
			<point x="71" y="271"/>
			<point x="100" y="234"/>
			<point x="113" y="215" type="curve"/>
			<point x="174" y="257"/>
			<point x="230" y="326"/>
			<point x="257" y="413" type="curve"/>
		</contour>
		<contour>
			<point x="169" y="328" type="line"/>
			<point x="205" y="301"/>
			<point x="251" y="260"/>
			<point x="273" y="231" type="curve"/>
			<point x="319" y="307" type="line"/>
			<point x="296" y="335"/>
			<point x="248" y="373"/>
			<point x="213" y="396" type="curve"/>
		</contour>
		<contour>
			<point x="512" y="594" type="line"/>
			<point x="496" y="536"/>
			<point x="460" y="489"/>
			<point x="413" y="459" type="curve"/>
			<point x="430" y="442"/>
			<point x="459" y="406"/>
			<point x="472" y="386" type="curve"/>
			<point x="524" y="427"/>
			<point x="569" y="493"/>
			<point x="590" y="574" type="curve"/>
		</contour>
		<contour>
			<point x="512" y="487" type="line"/>
			<point x="552" y="458"/>
			<point x="605" y="413"/>
			<point x="629" y="383" type="curve"/>
			<point x="683" y="457" type="line"/>
			<point x="656" y="487"/>
			<point x="602" y="528"/>
			<point x="563" y="554" type="curve"/>
		</contour>
		<contour>
			<point x="515" y="436" type="line"/>
			<point x="499" y="373"/>
			<point x="463" y="322"/>
			<point x="415" y="288" type="curve"/>
			<point x="432" y="272"/>
			<point x="462" y="235"/>
			<point x="474" y="215" type="curve"/>
			<point x="528" y="259"/>
			<point x="572" y="330"/>
			<point x="594" y="416" type="curve"/>
		</contour>
		<contour>
			<point x="515" y="329" type="line"/>
			<point x="554" y="298"/>
			<point x="605" y="250"/>
			<point x="630" y="218" type="curve"/>
			<point x="678" y="295" type="line"/>
			<point x="653" y="327"/>
			<point x="600" y="370"/>
			<point x="561" y="398" type="curve"/>
		</contour>
	</outline>
</glyph>
<glyph name="c22379" format="1">
	<advance width="750"/>
	<outline>
		<contour>
			<point x="491" y="577" type="line"/>
			<point x="561" y="577" type="line"/>
			<point x="561" y="549" type="line"/>
			<point x="491" y="549" type="line"/>
		</contour>
		<contour>
			<point x="338" y="577" type="line"/>
			<point x="406" y="577" type="line"/>
			<point x="406" y="549" type="line"/>
			<point x="338" y="549" type="line"/>
		</contour>
		<contour>
			<point x="186" y="577" type="line"/>
			<point x="253" y="577" type="line"/>
			<point x="253" y="549" type="line"/>
			<point x="186" y="549" type="line"/>
		</contour>
		<contour>
			<point x="90" y="671" type="line"/>
			<point x="90" y="456" type="line"/>
			<point x="662" y="456" type="line"/>
			<point x="662" y="671" type="line"/>
		</contour>
		<contour>
			<point x="38" y="805" type="line"/>
			<point x="38" y="697" type="line"/>
			<point x="714" y="697" type="line"/>
			<point x="714" y="805" type="line"/>
		</contour>
		<contour>
			<point x="196" y="855" type="line"/>
			<point x="196" y="652" type="line"/>
			<point x="304" y="652" type="line"/>
			<point x="304" y="855" type="line"/>
		</contour>
		<contour>
			<point x="444" y="855" type="line"/>
			<point x="444" y="652" type="line"/>
			<point x="553" y="652" type="line"/>
			<point x="553" y="855" type="line"/>
		</contour>
		<contour>
			<point x="184" y="432" type="line"/>
			<point x="184" y="324" type="line"/>
			<point x="617" y="324" type="line"/>
			<point x="617" y="432" type="line"/>
		</contour>
		<contour>
			<point x="121" y="301" type="line"/>
			<point x="121" y="85" type="line"/>
			<point x="214" y="85" type="line"/>
			<point x="214" y="301" type="line"/>
		</contour>
		<contour>
			<point x="173" y="301" type="line"/>
			<point x="173" y="217" type="line"/>
			<point x="401" y="217" type="line"/>
			<point x="401" y="188" type="line"/>
			<point x="173" y="188" type="line"/>
			<point x="173" y="104" type="line"/>
			<point x="500" y="104" type="line"/>
			<point x="500" y="301" type="line"/>
		</contour>
		<contour>
			<point x="255" y="345" type="line"/>
			<point x="255" y="-15" type="line"/>
			<point x="356" y="-15" type="line"/>
			<point x="356" y="345" type="line"/>
		</contour>
		<contour>
			<point x="71" y="51" type="curve"/>
			<point x="80" y="-65" type="line"/>
			<point x="185" y="-56"/>
			<point x="330" y="-43"/>
			<point x="467" y="-28" type="curve"/>
			<point x="469" y="72" type="line"/>
			<point x="323" y="63"/>
			<point x="169" y="55"/>
		</contour>
		<contour>
			<point x="573" y="432" type="line"/>
			<point x="573" y="406" type="line"/>
			<point x="567" y="144"/>
			<point x="559" y="52"/>
			<point x="548" y="30" type="curve"/>
			<point x="542" y="18"/>
			<point x="536" y="15"/>
			<point x="527" y="15" type="curve"/>
			<point x="516" y="14"/>
			<point x="502" y="15"/>
			<point x="484" y="18" type="curve"/>
			<point x="497" y="-13"/>
			<point x="506" y="-62"/>
			<point x="508" y="-95" type="curve"/>
			<point x="539" y="-97"/>
			<point x="568" y="-96"/>
			<point x="587" y="-91" type="curve"/>
			<point x="608" y="-85"/>
			<point x="626" y="-75"/>
			<point x="642" y="-44" type="curve"/>
			<point x="662" y="-8"/>
			<point x="671" y="97"/>
			<point x="680" y="379" type="curve"/>
			<point x="680" y="395"/>
			<point x="680" y="432"/>
			<point x="680" y="432" type="curve"/>
		</contour>
		<contour>
			<point x="207" y="520" type="line"/>
			<point x="167" y="428"/>
			<point x="92" y="342"/>
			<point x="15" y="291" type="curve"/>
			<point x="38" y="268"/>
			<point x="76" y="219"/>
			<point x="93" y="193" type="curve"/>
			<point x="171" y="257"/>
			<point x="254" y="363"/>
			<point x="305" y="477" type="curve"/>
		</contour>
		<contour>
			<point x="374" y="83" type="line"/>
			<point x="404" y="38"/>
			<point x="440" y="-25"/>
			<point x="455" y="-65" type="curve"/>
			<point x="530" y="0" type="line"/>
			<point x="512" y="41"/>
			<point x="474" y="100"/>
			<point x="443" y="142" type="curve"/>
		</contour>
	</outline>
</glyph>
<glyph name="c22395" format="1">
	<advance width="750"/>
	<outline>
		<contour>
			<point x="38" y="821" type="line"/>
			<point x="38" y="734" type="line"/>
			<point x="714" y="734" type="line"/>
			<point x="714" y="821" type="line"/>
		</contour>
		<contour>
			<point x="199" y="855" type="line"/>
			<point x="199" y="684" type="line"/>
			<point x="305" y="684" type="line"/>
			<point x="305" y="855" type="line"/>
		</contour>
		<contour>
			<point x="455" y="855" type="line"/>
			<point x="455" y="684" type="line"/>
			<point x="563" y="684" type="line"/>
			<point x="563" y="855" type="line"/>
		</contour>
		<contour>
			<point x="193" y="651" type="line"/>
			<point x="182" y="619"/>
			<point x="166" y="587"/>
			<point x="143" y="561" type="curve"/>
			<point x="158" y="552"/>
			<point x="183" y="532"/>
			<point x="194" y="520" type="curve"/>
			<point x="217" y="547"/>
			<point x="239" y="591"/>
			<point x="251" y="632" type="curve"/>
		</contour>
		<contour>
			<point x="408" y="532" type="line"/>
			<point x="408" y="453" type="line"/>
			<point x="611" y="453" type="line"/>
			<point x="611" y="532" type="line"/>
		</contour>
		<contour>
			<point x="194" y="608" type="line"/>
			<point x="194" y="550" type="line"/>
			<point x="364" y="550" type="line"/>
			<point x="364" y="608" type="line"/>
		</contour>
		<contour>
			<point x="159" y="530" type="line"/>
			<point x="159" y="471" type="line"/>
			<point x="372" y="471" type="line"/>
			<point x="372" y="530" type="line"/>
		</contour>
		<contour>
			<point x="460" y="699" type="line"/>
			<point x="460" y="612" type="line"/>
			<point x="589" y="612" type="line"/>
			<point x="589" y="699" type="line"/>
		</contour>
		<contour>
			<point x="604" y="532" type="line"/>
			<point x="604" y="521" type="line"/>
			<point x="572" y="439"/>
			<point x="489" y="397"/>
			<point x="386" y="382" type="curve"/>
			<point x="399" y="361"/>
			<point x="416" y="324"/>
			<point x="424" y="299" type="curve"/>
			<point x="547" y="326"/>
			<point x="641" y="383"/>
			<point x="683" y="511" type="curve"/>
			<point x="634" y="535" type="line"/>
			<point x="620" y="532" type="line"/>
		</contour>
		<contour>
			<point x="494" y="456" type="curve"/>
			<point x="424" y="432" type="line"/>
			<point x="472" y="352"/>
			<point x="556" y="309"/>
			<point x="671" y="295" type="curve"/>
			<point x="680" y="323"/>
			<point x="701" y="364"/>
			<point x="718" y="386" type="curve"/>
			<point x="616" y="389"/>
			<point x="533" y="409"/>
		</contour>
		<contour>
			<point x="425" y="699" type="line"/>
			<point x="425" y="659" type="line"/>
			<point x="425" y="633"/>
			<point x="419" y="613"/>
			<point x="375" y="591" type="curve"/>
			<point x="391" y="576"/>
			<point x="422" y="531"/>
			<point x="433" y="510" type="curve"/>
			<point x="491" y="546"/>
			<point x="503" y="601"/>
			<point x="503" y="656" type="curve"/>
			<point x="503" y="699" type="line"/>
		</contour>
		<contour>
			<point x="548" y="699" type="line"/>
			<point x="548" y="653" type="line"/>
			<point x="548" y="601"/>
			<point x="553" y="580"/>
			<point x="565" y="564" type="curve"/>
			<point x="575" y="548"/>
			<point x="596" y="541"/>
			<point x="613" y="541" type="curve"/>
			<point x="623" y="541"/>
			<point x="634" y="541"/>
			<point x="644" y="541" type="curve"/>
			<point x="654" y="541"/>
			<point x="669" y="543"/>
			<point x="677" y="549" type="curve"/>
			<point x="689" y="554"/>
			<point x="697" y="564"/>
			<point x="703" y="576" type="curve"/>
			<point x="708" y="588"/>
			<point x="711" y="615"/>
			<point x="713" y="641" type="curve"/>
			<point x="694" y="650"/>
			<point x="667" y="667"/>
			<point x="654" y="683" type="curve"/>
			<point x="653" y="664"/>
			<point x="653" y="649"/>
			<point x="651" y="642" type="curve"/>
			<point x="650" y="635"/>
			<point x="648" y="631"/>
			<point x="646" y="630" type="curve"/>
			<point x="644" y="629"/>
			<point x="643" y="629"/>
			<point x="641" y="629" type="curve"/>
			<point x="638" y="629"/>
			<point x="636" y="629"/>
			<point x="634" y="629" type="curve"/>
			<point x="632" y="629"/>
			<point x="630" y="629"/>
			<point x="629" y="632" type="curve"/>
			<point x="628" y="636"/>
			<point x="628" y="643"/>
			<point x="628" y="655" type="curve"/>
			<point x="628" y="699" type="line"/>
		</contour>
		<contour>
			<point x="236" y="579" type="line"/>
			<point x="236" y="521" type="line"/>
			<point x="236" y="493"/>
			<point x="227" y="455"/>
			<point x="152" y="437" type="curve"/>
			<point x="166" y="422"/>
			<point x="184" y="397"/>
			<point x="192" y="378" type="curve"/>
			<point x="280" y="413"/>
			<point x="299" y="471"/>
			<point x="299" y="519" type="curve"/>
			<point x="299" y="579" type="line"/>
		</contour>
		<contour>
			<point x="256" y="445" type="line"/>
			<point x="281" y="425"/>
			<point x="314" y="395"/>
			<point x="331" y="375" type="curve"/>
			<point x="369" y="429" type="line"/>
			<point x="352" y="448"/>
			<point x="318" y="476"/>
			<point x="293" y="494" type="curve"/>
		</contour>
		<contour>
			<point x="379" y="701" type="line"/>
			<point x="64" y="701" type="line"/>
			<point x="64" y="326" type="line"/>
			<point x="386" y="326" type="line"/>
			<point x="386" y="403" type="line"/>
			<point x="144" y="403" type="line"/>
			<point x="144" y="624" type="line"/>
			<point x="379" y="624" type="line"/>
		</contour>
		<contour>
			<point x="49" y="304" type="line"/>
			<point x="49" y="206" type="line"/>
			<point x="296" y="206" type="line"/>
			<point x="296" y="304" type="line"/>
		</contour>
		<contour>
			<point x="259" y="304" type="line"/>
			<point x="259" y="20" type="line"/>
			<point x="259" y="10"/>
			<point x="256" y="7"/>
			<point x="248" y="7" type="curve"/>
			<point x="240" y="6"/>
			<point x="213" y="6"/>
			<point x="193" y="8" type="curve"/>
			<point x="203" y="-21"/>
			<point x="215" y="-63"/>
			<point x="219" y="-95" type="curve"/>
			<point x="263" y="-95"/>
			<point x="298" y="-95"/>
			<point x="324" y="-79" type="curve"/>
			<point x="351" y="-62"/>
			<point x="359" y="-35"/>
			<point x="359" y="19" type="curve"/>
			<point x="359" y="304" type="line"/>
		</contour>
		<contour>
			<point x="155" y="232" type="line"/>
			<point x="128" y="196"/>
			<point x="79" y="162"/>
			<point x="32" y="139" type="curve"/>
			<point x="49" y="121"/>
			<point x="77" y="82"/>
			<point x="89" y="62" type="curve"/>
			<point x="138" y="93"/>
			<point x="195" y="145"/>
			<point x="230" y="198" type="curve"/>
		</contour>
		<contour>
			<point x="193" y="131" type="line"/>
			<point x="155" y="80"/>
			<point x="89" y="34"/>
			<point x="25" y="5" type="curve"/>
			<point x="42" y="-13"/>
			<point x="71" y="-54"/>
			<point x="83" y="-74" type="curve"/>
			<point x="147" y="-36"/>
			<point x="222" y="27"/>
			<point x="269" y="95" type="curve"/>
		</contour>
		<contour>
			<point x="374" y="304" type="line"/>
			<point x="374" y="206" type="line"/>
			<point x="628" y="206" type="line"/>
			<point x="628" y="304" type="line"/>
		</contour>
		<contour>
			<point x="587" y="304" type="line"/>
			<point x="587" y="21" type="line"/>
			<point x="587" y="10"/>
			<point x="583" y="7"/>
			<point x="574" y="7" type="curve"/>
			<point x="566" y="6"/>
			<point x="532" y="6"/>
			<point x="509" y="8" type="curve"/>
			<point x="519" y="-21"/>
			<point x="531" y="-63"/>
			<point x="535" y="-95" type="curve"/>
			<point x="584" y="-96"/>
			<point x="621" y="-95"/>
			<point x="649" y="-79" type="curve"/>
			<point x="677" y="-62"/>
			<point x="686" y="-35"/>
			<point x="686" y="20" type="curve"/>
			<point x="686" y="304" type="line"/>
		</contour>
		<contour>
			<point x="473" y="232" type="line"/>
			<point x="446" y="194"/>
			<point x="398" y="159"/>
			<point x="352" y="135" type="curve"/>
			<point x="369" y="117"/>
			<point x="398" y="78"/>
			<point x="410" y="58" type="curve"/>
			<point x="458" y="90"/>
			<point x="514" y="144"/>
			<point x="548" y="198" type="curve"/>
		</contour>
		<contour>
			<point x="524" y="141" type="line"/>
			<point x="486" y="89"/>
			<point x="419" y="41"/>
			<point x="356" y="11" type="curve"/>
			<point x="373" y="-7"/>
			<point x="401" y="-48"/>
			<point x="413" y="-69" type="curve"/>
			<point x="479" y="-30"/>
			<point x="554" y="35"/>
			<point x="599" y="105" type="curve"/>
		</contour>
	</outline>
</glyph>
<glyph name="c2267" format="1">
	<advance width="750"/>
	<outline>
		<contour>
			<point x="250" y="665" type="line"/>
			<point x="250" y="372" type="line"/>
			<point x="350" y="372" type="line"/>
			<point x="350" y="665" type="line"/>
		</contour>
		<contour>
			<point x="425" y="665" type="line"/>
			<point x="425" y="372" type="line"/>
			<point x="527" y="372" type="line"/>
			<point x="527" y="665" type="line"/>
		</contour>
		<contour>
			<point x="259" y="240" type="line"/>
			<point x="259" y="126" type="line"/>
			<point x="425" y="126" type="line"/>
			<point x="425" y="240" type="line"/>
		</contour>
		<contour>
			<point x="212" y="320" type="line"/>
			<point x="212" y="-4" type="line"/>
			<point x="315" y="-4" type="line"/>
			<point x="315" y="320" type="line"/>
		</contour>
		<contour>
			<point x="152" y="34" type="curve"/>
			<point x="161" y="-90" type="line"/>
			<point x="237" y="-80"/>
			<point x="335" y="-67"/>
			<point x="428" y="-53" type="curve"/>
			<point x="425" y="63" type="line"/>
			<point x="326" y="51"/>
			<point x="222" y="40"/>
		</contour>
		<contour>
			<point x="643" y="293" type="line"/>
			<point x="608" y="261"/>
			<point x="552" y="228"/>
			<point x="500" y="206" type="curve"/>
			<point x="511" y="180"/>
			<point x="525" y="136"/>
			<point x="530" y="109" type="curve"/>
			<point x="590" y="129"/>
			<point x="662" y="159"/>
			<point x="719" y="199" type="curve"/>
		</contour>
		<contour>
			<point x="451" y="319" type="line"/>
			<point x="451" y="71" type="line"/>
			<point x="451" y="-45"/>
			<point x="471" y="-84"/>
			<point x="559" y="-84" type="curve"/>
			<point x="576" y="-84"/>
			<point x="614" y="-84"/>
			<point x="632" y="-84" type="curve"/>
			<point x="698" y="-84"/>
			<point x="725" y="-47"/>
			<point x="734" y="79" type="curve"/>
			<point x="707" y="87"/>
			<point x="665" y="108"/>
			<point x="644" y="128" type="curve"/>
			<point x="642" y="50"/>
			<point x="638" y="35"/>
			<point x="621" y="35" type="curve"/>
			<point x="612" y="35"/>
			<point x="584" y="35"/>
			<point x="577" y="35" type="curve"/>
			<point x="558" y="35"/>
			<point x="555" y="39"/>
			<point x="555" y="72" type="curve"/>
			<point x="555" y="319" type="line"/>
		</contour>
		<contour>
			<point x="152" y="607" type="line"/>
			<point x="152" y="493" type="line"/>
			<point x="593" y="493" type="line"/>
			<point x="593" y="432" type="line"/>
			<point x="152" y="432" type="line"/>
			<point x="152" y="318" type="line"/>
			<point x="697" y="318" type="line"/>
			<point x="697" y="607" type="line"/>
		</contour>
		<contour>
			<point x="343" y="855" type="line"/>
			<point x="343" y="706" type="line"/>
			<point x="457" y="706" type="line"/>
			<point x="457" y="855" type="line"/>
		</contour>
		<contour>
			<point x="130" y="790" type="line"/>
			<point x="130" y="664" type="line"/>
			<point x="714" y="664" type="line"/>
			<point x="714" y="790" type="line"/>
		</contour>
		<contour>
			<point x="79" y="790" type="line"/>
			<point x="79" y="502" type="line"/>
			<point x="79" y="352"/>
			<point x="74" y="140"/>
			<point x="11" y="-3" type="curve"/>
			<point x="35" y="-17"/>
			<point x="81" y="-58"/>
			<point x="100" y="-82" type="curve"/>
			<point x="170" y="76"/>
			<point x="182" y="334"/>
			<point x="182" y="502" type="curve"/>
			<point x="182" y="790" type="line"/>
		</contour>
	</outline>
</glyph>
<glyph name="c3452" format="1">
	<advance width="750"/>
	<outline>
		<contour>
			<point x="305" y="381" type="line"/>
			<point x="305" y="266" type="line"/>
			<point x="596" y="266" type="line"/>
			<point x="596" y="381" type="line"/>
		</contour>
		<contour>
			<point x="305" y="594" type="line"/>
			<point x="305" y="474" type="line"/>
			<point x="613" y="474" type="line"/>
			<point x="613" y="594" type="line"/>
		</contour>
		<contour>
			<point x="430" y="661" type="line"/>
			<point x="430" y="341" type="line"/>
			<point x="527" y="341" type="line"/>
			<point x="527" y="661" type="line"/>
		</contour>
		<contour>
			<point x="571" y="381" type="line"/>
			<point x="571" y="362" type="line"/>
			<point x="540" y="177"/>
			<point x="443" y="65"/>
			<point x="299" y="23" type="curve"/>
			<point x="317" y="-5"/>
			<point x="341" y="-60"/>
			<point x="351" y="-95" type="curve"/>
			<point x="521" y="-29"/>
			<point x="631" y="99"/>
			<point x="674" y="358" type="curve"/>
			<point x="608" y="385" type="line"/>
			<point x="590" y="381" type="line"/>
		</contour>
		<contour>
			<point x="436" y="305" type="curve"/>
			<point x="344" y="279" type="line"/>
			<point x="399" y="77"/>
			<point x="487" y="-43"/>
			<point x="657" y="-95" type="curve"/>
			<point x="671" y="-57"/>
			<point x="698" y="-1"/>
			<point x="721" y="27" type="curve"/>
			<point x="567" y="61"/>
			<point x="478" y="156"/>
		</contour>
		<contour>
			<point x="259" y="594" type="line"/>
			<point x="259" y="394" type="line"/>
			<point x="259" y="271"/>
			<point x="253" y="97"/>
			<point x="181" y="-23" type="curve"/>
			<point x="203" y="-37"/>
			<point x="245" y="-77"/>
			<point x="263" y="-100" type="curve"/>
			<point x="341" y="33"/>
			<point x="356" y="247"/>
			<point x="356" y="393" type="curve"/>
			<point x="356" y="594" type="line"/>
		</contour>
		<contour>
			<point x="605" y="594" type="line"/>
			<point x="605" y="578" type="line"/>
			<point x="599" y="524"/>
			<point x="586" y="455"/>
			<point x="576" y="413" type="curve"/>
			<point x="666" y="395" type="line"/>
			<point x="681" y="442"/>
			<point x="698" y="515"/>
			<point x="710" y="582" type="curve"/>
			<point x="635" y="597" type="line"/>
			<point x="619" y="594" type="line"/>
		</contour>
		<contour>
			<point x="176" y="779" type="line"/>
			<point x="176" y="658" type="line"/>
			<point x="719" y="658" type="line"/>
			<point x="719" y="779" type="line"/>
		</contour>
		<contour>
			<point x="124" y="779" type="line"/>
			<point x="124" y="455" type="line"/>
			<point x="124" y="312"/>
			<point x="117" y="124"/>
			<point x="33" y="-1" type="curve"/>
			<point x="53" y="-18"/>
			<point x="94" y="-70"/>
			<point x="109" y="-97" type="curve"/>
			<point x="206" y="45"/>
			<point x="224" y="290"/>
			<point x="224" y="455" type="curve"/>
			<point x="224" y="779" type="line"/>
		</contour>
		<contour>
			<point x="353" y="855" type="line"/>
			<point x="353" y="702" type="line"/>
			<point x="468" y="702" type="line"/>
			<point x="468" y="855" type="line"/>
		</contour>
		<contour>
			<point x="15" y="639" type="line"/>
			<point x="33" y="573"/>
			<point x="49" y="487"/>
			<point x="52" y="434" type="curve"/>
			<point x="134" y="484" type="line"/>
			<point x="130" y="536"/>
			<point x="112" y="618"/>
			<point x="92" y="682" type="curve"/>
		</contour>
		<contour>
			<point x="10" y="305" type="curve"/>
			<point x="39" y="173" type="line"/>
			<point x="83" y="207"/>
			<point x="130" y="244"/>
			<point x="173" y="282" type="curve"/>
			<point x="149" y="391" type="line"/>
			<point x="96" y="357"/>
			<point x="46" y="324"/>
		</contour>
	</outline>
</glyph>
<glyph name="c5640" format="1">
	<advance width="750"/>
	<outline>
		<contour>
			<point x="17" y="777" type="line"/>
			<point x="140" y="644"/>
			<point x="162" y="498"/>
			<point x="162" y="308" type="curve"/>
			<point x="162" y="188"/>
			<point x="156" y="89"/>
			<point x="141" y="63" type="curve"/>
			<point x="135" y="52"/>
			<point x="128" y="46"/>
			<point x="117" y="44" type="curve"/>
			<point x="101" y="42"/>
			<point x="75" y="41"/>
			<point x="36" y="45" type="curve"/>
			<point x="55" y="4"/>
			<point x="65" y="-47"/>
			<point x="65" y="-94" type="curve"/>
			<point x="104" y="-96"/>
			<point x="137" y="-95"/>
			<point x="169" y="-83" type="curve"/>
			<point x="188" y="-76"/>
			<point x="206" y="-61"/>
			<point x="220" y="-38" type="curve"/>
			<point x="257" y="29"/>
			<point x="265" y="167"/>
			<point x="265" y="305" type="curve"/>
			<point x="265" y="506"/>
			<point x="245" y="693"/>
			<point x="92" y="855" type="curve"/>
		</contour>
		<contour>
			<point x="171" y="488" type="line"/>
			<point x="138" y="402"/>
			<point x="70" y="302"/>
			<point x="10" y="252" type="curve"/>
			<point x="35" y="226"/>
			<point x="65" y="179"/>
			<point x="83" y="145" type="curve"/>
			<point x="143" y="212"/>
			<point x="214" y="328"/>
			<point x="251" y="424" type="curve"/>
		</contour>
		<contour>
			<point x="197" y="845" type="line"/>
			<point x="155" y="734"/>
			<point x="84" y="615"/>
			<point x="9" y="546" type="curve"/>
			<point x="32" y="523"/>
			<point x="68" y="479"/>
			<point x="84" y="450" type="curve"/>
			<point x="162" y="529"/>
			<point x="239" y="651"/>
			<point x="293" y="781" type="curve"/>
		</contour>
		<contour>
			<point x="401" y="581" type="line"/>
			<point x="589" y="581" type="line"/>
			<point x="589" y="545" type="line"/>
			<point x="401" y="545" type="line"/>
		</contour>
		<contour>
			<point x="401" y="715" type="line"/>
			<point x="589" y="715" type="line"/>
			<point x="589" y="679" type="line"/>
			<point x="401" y="679" type="line"/>
		</contour>
		<contour>
			<point x="300" y="820" type="line"/>
			<point x="300" y="440" type="line"/>
			<point x="694" y="440" type="line"/>
			<point x="694" y="820" type="line"/>
		</contour>
		<contour>
			<point x="321" y="445" type="line"/>
			<point x="303" y="379"/>
			<point x="269" y="311"/>
			<point x="230" y="269" type="curve"/>
			<point x="252" y="252"/>
			<point x="290" y="217"/>
			<point x="308" y="196" type="curve"/>
			<point x="349" y="248"/>
			<point x="390" y="331"/>
			<point x="414" y="414" type="curve"/>
		</contour>
		<contour>
			<point x="364" y="370" type="line"/>
			<point x="321" y="256" type="line"/>
			<point x="705" y="256" type="line"/>
			<point x="705" y="370" type="line"/>
		</contour>
		<contour>
			<point x="311" y="202" type="line"/>
			<point x="311" y="93" type="line"/>
			<point x="686" y="93" type="line"/>
			<point x="686" y="202" type="line"/>
		</contour>
		<contour>
			<point x="254" y="35" type="line"/>
			<point x="254" y="-81" type="line"/>
			<point x="731" y="-81" type="line"/>
			<point x="731" y="35" type="line"/>
		</contour>
		<contour>
			<point x="443" y="450" type="line"/>
			<point x="443" y="18" type="line"/>
			<point x="549" y="18" type="line"/>
			<point x="549" y="450" type="line"/>
		</contour>
	</outline>
</glyph>
<glyph name="c6260" format="1">
	<advance width="750"/>
	<outline>
		<contour>
			<point x="100" y="821" type="line"/>
			<point x="100" y="690" type="line"/>
			<point x="252" y="690" type="line"/>
			<point x="252" y="821" type="line"/>
		</contour>
		<contour>
			<point x="105" y="596" type="line"/>
			<point x="105" y="465" type="line"/>
			<point x="241" y="465" type="line"/>
			<point x="241" y="596" type="line"/>
		</contour>
		<contour>
			<point x="302" y="35" type="line"/>
			<point x="302" y="-83" type="line"/>
			<point x="731" y="-83" type="line"/>
			<point x="731" y="35" type="line"/>
		</contour>
		<contour>
			<point x="341" y="202" type="line"/>
			<point x="341" y="93" type="line"/>
			<point x="689" y="93" type="line"/>
			<point x="689" y="202" type="line"/>
		</contour>
		<contour>
			<point x="105" y="367" type="line"/>
			<point x="105" y="233" type="line"/>
			<point x="241" y="233" type="line"/>
			<point x="241" y="367" type="line"/>
		</contour>
		<contour>
			<point x="58" y="821" type="line"/>
			<point x="58" y="452" type="line"/>
			<point x="58" y="305"/>
			<point x="56" y="102"/>
			<point x="14" y="-35" type="curve"/>
			<point x="38" y="-47"/>
			<point x="81" y="-78"/>
			<point x="100" y="-99" type="curve"/>
			<point x="146" y="51"/>
			<point x="152" y="291"/>
			<point x="152" y="453" type="curve"/>
			<point x="152" y="821" type="line"/>
		</contour>
		<contour>
			<point x="195" y="821" type="line"/>
			<point x="195" y="59" type="line"/>
			<point x="195" y="48"/>
			<point x="193" y="44"/>
			<point x="185" y="44" type="curve"/>
			<point x="177" y="44"/>
			<point x="155" y="43"/>
			<point x="137" y="45" type="curve"/>
			<point x="149" y="9"/>
			<point x="161" y="-55"/>
			<point x="163" y="-92" type="curve"/>
			<point x="207" y="-92"/>
			<point x="238" y="-88"/>
			<point x="263" y="-65" type="curve"/>
			<point x="287" y="-42"/>
			<point x="293" y="-2"/>
			<point x="293" y="57" type="curve"/>
			<point x="293" y="821" type="line"/>
		</contour>
		<contour>
			<point x="430" y="580" type="line"/>
			<point x="596" y="580" type="line"/>
			<point x="596" y="547" type="line"/>
			<point x="430" y="547" type="line"/>
		</contour>
		<contour>
			<point x="430" y="713" type="line"/>
			<point x="596" y="713" type="line"/>
			<point x="596" y="680" type="line"/>
			<point x="430" y="680" type="line"/>
		</contour>
		<contour>
			<point x="332" y="820" type="line"/>
			<point x="332" y="440" type="line"/>
			<point x="698" y="440" type="line"/>
			<point x="698" y="820" type="line"/>
		</contour>
		<contour>
			<point x="461" y="450" type="line"/>
			<point x="461" y="-5" type="line"/>
			<point x="565" y="-5" type="line"/>
			<point x="565" y="450" type="line"/>
		</contour>
		<contour>
			<point x="346" y="443" type="line"/>
			<point x="328" y="372"/>
			<point x="296" y="298"/>
			<point x="260" y="250" type="curve"/>
			<point x="281" y="233"/>
			<point x="317" y="198"/>
			<point x="335" y="177" type="curve"/>
			<point x="372" y="234"/>
			<point x="412" y="325"/>
			<point x="435" y="412" type="curve"/>
		</contour>
		<contour>
			<point x="382" y="369" type="line"/>
			<point x="339" y="255" type="line"/>
			<point x="707" y="255" type="line"/>
			<point x="707" y="369" type="line"/>
		</contour>
	</outline>
</glyph>
<glyph name="c6385" format="1">
	<advance width="750"/>
	<outline>
		<contour>
			<point x="38" y="555" type="line"/>
			<point x="38" y="465" type="line"/>
			<point x="579" y="465" type="line"/>
			<point x="579" y="555" type="line"/>
		</contour>
		<contour>
			<point x="566" y="568" type="line"/>
			<point x="566" y="452" type="line"/>
			<point x="718" y="452" type="line"/>
			<point x="718" y="568" type="line"/>
		</contour>
		<contour>
			<point x="319" y="265" type="line"/>
			<point x="319" y="-95" type="line"/>
			<point x="426" y="-95" type="line"/>
			<point x="426" y="265" type="line"/>
		</contour>
		<contour>
			<point x="127" y="188" type="line"/>
			<point x="127" y="-69" type="line"/>
			<point x="233" y="-69" type="line"/>
			<point x="233" y="80" type="line"/>
			<point x="554" y="80" type="line"/>
			<point x="554" y="188" type="line"/>
		</contour>
		<contour>
			<point x="519" y="188" type="line"/>
			<point x="519" y="56" type="line"/>
			<point x="519" y="45"/>
			<point x="515" y="43"/>
			<point x="506" y="42" type="curve"/>
			<point x="497" y="42"/>
			<point x="462" y="42"/>
			<point x="437" y="44" type="curve"/>
			<point x="450" y="12"/>
			<point x="464" y="-36"/>
			<point x="469" y="-72" type="curve"/>
			<point x="516" y="-72"/>
			<point x="554" y="-72"/>
			<point x="584" y="-54" type="curve"/>
			<point x="616" y="-36"/>
			<point x="624" y="-4"/>
			<point x="624" y="53" type="curve"/>
			<point x="624" y="188" type="line"/>
		</contour>
		<contour>
			<point x="49" y="316" type="line"/>
			<point x="49" y="140" type="line"/>
			<point x="151" y="140" type="line"/>
			<point x="151" y="221" type="line"/>
			<point x="594" y="221" type="line"/>
			<point x="594" y="140" type="line"/>
			<point x="701" y="140" type="line"/>
			<point x="701" y="316" type="line"/>
		</contour>
		<contour>
			<point x="107" y="676" type="line"/>
			<point x="107" y="580" type="line"/>
			<point x="535" y="580" type="line"/>
			<point x="535" y="436" type="line"/>
			<point x="102" y="436" type="line"/>
			<point x="102" y="341" type="line"/>
			<point x="643" y="341" type="line"/>
			<point x="643" y="676" type="line"/>
		</contour>
		<contour>
			<point x="43" y="817" type="line"/>
			<point x="43" y="705" type="line"/>
			<point x="708" y="705" type="line"/>
			<point x="708" y="817" type="line"/>
		</contour>
		<contour>
			<point x="196" y="855" type="line"/>
			<point x="196" y="634" type="line"/>
			<point x="304" y="634" type="line"/>
			<point x="304" y="855" type="line"/>
		</contour>
		<contour>
			<point x="444" y="855" type="line"/>
			<point x="444" y="634" type="line"/>
			<point x="553" y="634" type="line"/>
			<point x="553" y="855" type="line"/>
		</contour>
	</outline>
</glyph>
<glyph name="c6449" format="1">
	<advance width="750"/>
	<outline>
		<contour>
			<point x="38" y="796" type="line"/>
			<point x="38" y="680" type="line"/>
			<point x="713" y="680" type="line"/>
			<point x="713" y="796" type="line"/>
		</contour>
		<contour>
			<point x="113" y="309" type="line"/>
			<point x="113" y="219" type="line"/>
			<point x="644" y="219" type="line"/>
			<point x="644" y="309" type="line"/>
		</contour>
		<contour>
			<point x="196" y="855" type="line"/>
			<point x="196" y="648" type="line"/>
			<point x="304" y="648" type="line"/>
			<point x="304" y="855" type="line"/>
		</contour>
		<contour>
			<point x="444" y="855" type="line"/>
			<point x="444" y="648" type="line"/>
			<point x="553" y="648" type="line"/>
			<point x="553" y="855" type="line"/>
		</contour>
		<contour>
			<point x="489" y="564" type="line"/>
			<point x="550" y="564" type="line"/>
			<point x="550" y="536" type="line"/>
			<point x="489" y="536" type="line"/>
		</contour>
		<contour>
			<point x="345" y="564" type="line"/>
			<point x="404" y="564" type="line"/>
			<point x="404" y="536" type="line"/>
			<point x="345" y="536" type="line"/>
		</contour>
		<contour>
			<point x="201" y="564" type="line"/>
			<point x="260" y="564" type="line"/>
			<point x="260" y="536" type="line"/>
			<point x="201" y="536" type="line"/>
		</contour>
		<contour>
			<point x="105" y="654" type="line"/>
			<point x="105" y="446" type="line"/>
			<point x="651" y="446" type="line"/>
			<point x="651" y="654" type="line"/>
		</contour>
		<contour>
			<point x="46" y="425" type="line"/>
			<point x="46" y="253" type="line"/>
			<point x="143" y="253" type="line"/>
			<point x="143" y="330" type="line"/>
			<point x="606" y="330" type="line"/>
			<point x="606" y="253" type="line"/>
			<point x="708" y="253" type="line"/>
			<point x="708" y="425" type="line"/>
		</contour>
		<contour>
			<point x="203" y="252" type="line"/>
			<point x="174" y="205"/>
			<point x="120" y="164"/>
			<point x="39" y="135" type="curve"/>
			<point x="56" y="119"/>
			<point x="79" y="80"/>
			<point x="89" y="55" type="curve"/>
			<point x="182" y="99"/>
			<point x="243" y="153"/>
			<point x="286" y="231" type="curve"/>
		</contour>
		<contour>
			<point x="304" y="189" type="line"/>
			<point x="304" y="176" type="line"/>
			<point x="268" y="71"/>
			<point x="167" y="19"/>
			<point x="39" y="1" type="curve"/>
			<point x="54" y="-23"/>
			<point x="72" y="-68"/>
			<point x="79" y="-97" type="curve"/>
			<point x="227" y="-65"/>
			<point x="341" y="5"/>
			<point x="391" y="166" type="curve"/>
			<point x="337" y="192" type="line"/>
			<point x="321" y="189" type="line"/>
		</contour>
		<contour>
			<point x="135" y="56" type="line"/>
			<point x="154" y="40"/>
			<point x="179" y="11"/>
			<point x="191" y="-9" type="curve"/>
			<point x="253" y="45" type="line"/>
			<point x="239" y="63"/>
			<point x="215" y="88"/>
			<point x="194" y="103" type="curve"/>
		</contour>
		<contour>
			<point x="202" y="189" type="line"/>
			<point x="144" y="112" type="line"/>
			<point x="334" y="112" type="line"/>
			<point x="334" y="189" type="line"/>
		</contour>
		<contour>
			<point x="401" y="239" type="line"/>
			<point x="401" y="53" type="line"/>
			<point x="401" y="-53"/>
			<point x="423" y="-86"/>
			<point x="518" y="-86" type="curve"/>
			<point x="536" y="-86"/>
			<point x="597" y="-86"/>
			<point x="617" y="-86" type="curve"/>
			<point x="685" y="-86"/>
			<point x="710" y="-58"/>
			<point x="721" y="41" type="curve"/>
			<point x="695" y="48"/>
			<point x="656" y="66"/>
			<point x="637" y="83" type="curve"/>
			<point x="634" y="30"/>
			<point x="629" y="20"/>
			<point x="607" y="20" type="curve"/>
			<point x="592" y="20"/>
			<point x="543" y="20"/>
			<point x="531" y="20" type="curve"/>
			<point x="503" y="20"/>
			<point x="499" y="24"/>
			<point x="499" y="54" type="curve"/>
			<point x="499" y="239" type="line"/>
		</contour>
		<contour>
			<point x="611" y="213" type="line"/>
			<point x="570" y="189"/>
			<point x="501" y="168"/>
			<point x="438" y="155" type="curve"/>
			<point x="448" y="132"/>
			<point x="459" y="92"/>
			<point x="464" y="68" type="curve"/>
			<point x="533" y="79"/>
			<point x="617" y="99"/>
			<point x="681" y="131" type="curve"/>
		</contour>
	</outline>
</glyph>
<glyph name="c6550" format="1">
	<advance width="750"/>
	<outline>
		<contour>
			<point x="214" y="495" type="line"/>
			<point x="533" y="495" type="line"/>
			<point x="533" y="467" type="line"/>
			<point x="214" y="467" type="line"/>
		</contour>
		<contour>
			<point x="214" y="597" type="line"/>
			<point x="533" y="597" type="line"/>
			<point x="533" y="570" type="line"/>
			<point x="214" y="570" type="line"/>
		</contour>
		<contour>
			<point x="110" y="677" type="line"/>
			<point x="110" y="387" type="line"/>
			<point x="643" y="387" type="line"/>
			<point x="643" y="677" type="line"/>
		</contour>
		<contour>
			<point x="32" y="363" type="line"/>
			<point x="32" y="256" type="line"/>
			<point x="722" y="256" type="line"/>
			<point x="722" y="363" type="line"/>
		</contour>
		<contour>
			<point x="246" y="406" type="line"/>
			<point x="216" y="310"/>
			<point x="148" y="227"/>
			<point x="17" y="175" type="curve"/>
			<point x="36" y="154"/>
			<point x="62" y="104"/>
			<point x="73" y="73" type="curve"/>
			<point x="219" y="144"/>
			<point x="299" y="246"/>
			<point x="345" y="385" type="curve"/>
		</contour>
		<contour>
			<point x="535" y="320" type="curve"/>
			<point x="457" y="286" type="line"/>
			<point x="504" y="191"/>
			<point x="582" y="118"/>
			<point x="676" y="84" type="curve"/>
			<point x="689" y="117"/>
			<point x="717" y="167"/>
			<point x="738" y="192" type="curve"/>
			<point x="651" y="212"/>
			<point x="574" y="259"/>
		</contour>
		<contour>
			<point x="38" y="817" type="line"/>
			<point x="38" y="706" type="line"/>
			<point x="714" y="706" type="line"/>
			<point x="714" y="817" type="line"/>
		</contour>
		<contour>
			<point x="200" y="855" type="line"/>
			<point x="200" y="648" type="line"/>
			<point x="305" y="648" type="line"/>
			<point x="305" y="855" type="line"/>
		</contour>
		<contour>
			<point x="442" y="855" type="line"/>
			<point x="442" y="648" type="line"/>
			<point x="549" y="648" type="line"/>
			<point x="549" y="855" type="line"/>
		</contour>
		<contour>
			<point x="320" y="277" type="line"/>
			<point x="320" y="2" type="line"/>
			<point x="424" y="2" type="line"/>
			<point x="424" y="277" type="line"/>
		</contour>
		<contour>
			<point x="256" y="156" type="line"/>
			<point x="491" y="156" type="line"/>
			<point x="491" y="128" type="line"/>
			<point x="256" y="128" type="line"/>
		</contour>
		<contour>
			<point x="162" y="225" type="line"/>
			<point x="162" y="59" type="line"/>
			<point x="590" y="59" type="line"/>
			<point x="590" y="225" type="line"/>
		</contour>
		<contour>
			<point x="88" y="26" type="curve"/>
			<point x="89" y="-82" type="line"/>
			<point x="224" y="-80"/>
			<point x="425" y="-75"/>
			<point x="612" y="-69" type="curve"/>
			<point x="617" y="26" type="line"/>
			<point x="425" y="24"/>
			<point x="218" y="25"/>
		</contour>
		<contour>
			<point x="497" y="46" type="line"/>
			<point x="537" y="5"/>
			<point x="590" y="-60"/>
			<point x="617" y="-101" type="curve"/>
			<point x="703" y="-51" type="line"/>
			<point x="674" y="-13"/>
			<point x="622" y="47"/>
			<point x="578" y="88" type="curve"/>
		</contour>
	</outline>
</glyph>
<glyph name="c7734" format="1">
	<advance width="750"/>
	<outline>
		<contour>
			<point x="407" y="28" type="line"/>
			<point x="486" y="-9"/>
			<point x="572" y="-61"/>
			<point x="620" y="-94" type="curve"/>
			<point x="721" y="4" type="line"/>
			<point x="665" y="36"/>
			<point x="566" y="86"/>
			<point x="484" y="123" type="curve"/>
		</contour>
		<contour>
			<point x="44" y="218" type="line"/>
			<point x="44" y="92" type="line"/>
			<point x="707" y="92" type="line"/>
			<point x="707" y="218" type="line"/>
		</contour>
		<contour>
			<point x="77" y="402" type="line"/>
			<point x="77" y="276" type="line"/>
			<point x="674" y="276" type="line"/>
			<point x="674" y="402" type="line"/>
		</contour>
		<contour>
			<point x="198" y="469" type="line"/>
			<point x="198" y="167" type="line"/>
			<point x="309" y="167" type="line"/>
			<point x="309" y="469" type="line"/>
		</contour>
		<contour>
			<point x="440" y="469" type="line"/>
			<point x="440" y="167" type="line"/>
			<point x="551" y="167" type="line"/>
			<point x="551" y="469" type="line"/>
		</contour>
		<contour>
			<point x="64" y="821" type="line"/>
			<point x="64" y="590" type="line"/>
			<point x="64" y="478"/>
			<point x="90" y="446"/>
			<point x="180" y="446" type="curve"/>
			<point x="200" y="446"/>
			<point x="255" y="446"/>
			<point x="275" y="446" type="curve"/>
			<point x="342" y="446"/>
			<point x="369" y="473"/>
			<point x="380" y="566" type="curve"/>
			<point x="353" y="573"/>
			<point x="313" y="592"/>
			<point x="293" y="609" type="curve"/>
			<point x="290" y="565"/>
			<point x="284" y="555"/>
			<point x="265" y="555" type="curve"/>
			<point x="251" y="555"/>
			<point x="207" y="555"/>
			<point x="196" y="555" type="curve"/>
			<point x="170" y="555"/>
			<point x="165" y="559"/>
			<point x="165" y="591" type="curve"/>
			<point x="165" y="821" type="line"/>
		</contour>
		<contour>
			<point x="251" y="125" type="line"/>
			<point x="202" y="84"/>
			<point x="104" y="33"/>
			<point x="23" y="10" type="curve"/>
			<point x="48" y="-18"/>
			<point x="83" y="-66"/>
			<point x="101" y="-95" type="curve"/>
			<point x="182" y="-69"/>
			<point x="282" y="-17"/>
			<point x="344" y="34" type="curve"/>
		</contour>
		<contour>
			<point x="134" y="821" type="line"/>
			<point x="134" y="725" type="line"/>
			<point x="254" y="725" type="line"/>
			<point x="254" y="687" type="line"/>
			<point x="134" y="687" type="line"/>
			<point x="134" y="591" type="line"/>
			<point x="354" y="591" type="line"/>
			<point x="354" y="821" type="line"/>
		</contour>
		<contour>
			<point x="393" y="821" type="line"/>
			<point x="393" y="590" type="line"/>
			<point x="393" y="476"/>
			<point x="420" y="444"/>
			<point x="511" y="444" type="curve"/>
			<point x="530" y="444"/>
			<point x="586" y="444"/>
			<point x="606" y="444" type="curve"/>
			<point x="674" y="444"/>
			<point x="701" y="471"/>
			<point x="712" y="566" type="curve"/>
			<point x="684" y="573"/>
			<point x="644" y="591"/>
			<point x="623" y="609" type="curve"/>
			<point x="620" y="565"/>
			<point x="615" y="555"/>
			<point x="596" y="555" type="curve"/>
			<point x="581" y="555"/>
			<point x="538" y="555"/>
			<point x="527" y="555" type="curve"/>
			<point x="501" y="555"/>
			<point x="497" y="559"/>
			<point x="497" y="592" type="curve"/>
			<point x="497" y="821" type="line"/>
		</contour>
		<contour>
			<point x="446" y="821" type="line"/>
			<point x="446" y="725" type="line"/>
			<point x="578" y="725" type="line"/>
			<point x="578" y="687" type="line"/>
			<point x="446" y="687" type="line"/>
			<point x="446" y="591" type="line"/>
			<point x="679" y="591" type="line"/>
			<point x="679" y="821" type="line"/>
		</contour>
	</outline>
</glyph>
